{
  "accessors": [
    {
      "bufferView": 2,
      "componentType": 5126,
      "count": 65532,
      "max": [
        0.42913898825645447,
        0.5548030138015747,
        0.9482600092887878
      ],
      "min": [
        -0.43188101053237915,
        -0.5529019832611084,
        -0.9503250122070313
      ],
      "type": "VEC3"
    },
    {
      "bufferView": 2,
      "byteOffset": 786384,
      "componentType": 5126,
      "count": 65532,
      "max": [
        0.9999621510505676,
        0.9981046319007874,
        0.999888002872467
      ],
      "min": [
        -0.9999979734420776,
        -0.9999753832817078,
        -0.999838650226593
      ],
      "type": "VEC3"
    },
    {
      "bufferView": 3,
      "componentType": 5126,
      "count": 65532,
      "max": [
        0.999995231628418,
        0.9999398589134216,
        0.9999948143959045,
        1.0
      ],
      "min": [
        -0.9999902844429016,
        -0.9999809861183167,
        -0.9999924302101135,
        -1.0
      ],
      "type": "VEC4"
    },
    {
      "bufferView": 1,
      "componentType": 5126,
      "count": 65532,
      "max": [
        0.9999880194664001,
        0.9999859929084778
      ],
      "min": [
        4.400000034365803e-05,
        0.0024970173835754395
      ],
      "type": "VEC2"
    },
    {
      "bufferView": 1,
      "byteOffset": 524256,
      "componentType": 5126,
      "count": 65532,
      "max": [
        0.9999880194664001,
        0.9999859929084778
      ],
      "min": [
        4.400000034365803e-05,
        0.0024970173835754395
      ],
      "type": "VEC2"
    },
    {
      "bufferView": 1,
      "byteOffset": 1048512,
      "componentType": 5126,
      "count": 65532,
      "max": [
        0.9999880194664001,
        0.9999859929084778
      ],
      "min": [
        4.400000034365803e-05,
        0.0024970173835754395
      ],
      "type": "VEC2"
    },
    {
      "bufferView": 1,
      "byteOffset": 1572768,
      "componentType": 5126,
      "count": 65532,
      "max": [
        0.9999880194664001,
        0.9999859929084778
      ],
      "min": [
        4.400000034365803e-05,
        0.0024970173835754395
      ],
      "type": "VEC2"
    },
    {
      "bufferView": 0,
      "componentType": 5125,
      "count": 333912,
      "type": "SCALAR"
    },
    {
      "bufferView": 2,
      "byteOffset": 1572768,
      "componentType": 5126,
      "count": 44418,
      "max": [
        0.4335319995880127,
        0.44049298763275146,
        0.3091239929199219
      ],
      "min": [
        -0.4356690049171448,
        -0.5522689819335938,
        -0.9504129886627197
      ],
      "type": "VEC3"
    },
    {
      "bufferView": 2,
      "byteOffset": 2105784,
      "componentType": 5126,
      "count": 44418,
      "max": [
        0.9999954104423523,
        0.9999978542327881,
        0.9986981153488159
      ],
      "min": [
        -0.9999983310699463,
        -0.9999998807907104,
        -0.999838650226593
      ],
      "type": "VEC3"
    },
    {
      "bufferView": 3,
      "byteOffset": 1048512,
      "componentType": 5126,
      "count": 44418,
      "max": [
        0.9999812841415405,
        0.9999693632125854,
        0.9999905824661255,
        1.0
      ],
      "min": [
        -0.9999989867210388,
        -0.9999240040779114,
        -0.999925434589386,
        -1.0
      ],
      "type": "VEC4"
    },
    {
      "bufferView": 1,
      "byteOffset": 2097024,
      "componentType": 5126,
      "count": 44418,
      "max": [
        0.9999549984931946,
        0.9999570250511169
      ],
      "min": [
        1.700000029813964e-05,
        0.0026090145111083984
      ],
      "type": "VEC2"
    },
    {
      "bufferView": 1,
      "byteOffset": 2452368,
      "componentType": 5126,
      "count": 44418,
      "max": [
        0.9999549984931946,
        0.9999570250511169
      ],
      "min": [
        1.700000029813964e-05,
        0.0026090145111083984
      ],
      "type": "VEC2"
    },
    {
      "bufferView": 1,
      "byteOffset": 2807712,
      "componentType": 5126,
      "count": 44418,
      "max": [
        0.9999549984931946,
        0.9999570250511169
      ],
      "min": [
        1.700000029813964e-05,
        0.0026090145111083984
      ],
      "type": "VEC2"
    },
    {
      "bufferView": 1,
      "byteOffset": 3163056,
      "componentType": 5126,
      "count": 44418,
      "max": [
        0.9999549984931946,
        0.9999570250511169
      ],
      "min": [
        1.700000029813964e-05,
        0.0026090145111083984
      ],
      "type": "VEC2"
    },
    {
      "bufferView": 0,
      "byteOffset": 1335648,
      "componentType": 5125,
      "count": 208308,
      "type": "SCALAR"
    }
  ],
  "asset": {
    "extras": {
      "author": "algorin94 (https://sketchfab.com/algorin94)",
      "license": "CC-BY-NC-4.0 (http://creativecommons.org/licenses/by-nc/4.0/)",
      "source": "https://sketchfab.com/3d-models/low-poly-geometric-songbird-parus-major-89e178f081f448f6bf125ee565b09671",
      "title": "Low Poly Geometric Songbird Parus major"
    },
    "generator": "Sketchfab-17.3.0",
    "version": "2.0"
  },
  "bufferViews": [
    {
      "buffer": 0,
      "byteLength": 2168880,
      "name": "floatBufferViews",
      "target": 34963
    },
    {
      "buffer": 0,
      "byteLength": 3518400,
      "byteOffset": 2168880,
      "byteStride": 8,
      "name": "floatBufferViews",
      "target": 34962
    },
    {
      "buffer": 0,
      "byteLength": 2638800,
      "byteOffset": 5687280,
      "byteStride": 12,
      "name": "floatBufferViews",
      "target": 34962
    },
    {
      "buffer": 0,
      "byteLength": 1759200,
      "byteOffset": 8326080,
      "byteStride": 16,
      "name": "floatBufferViews",
      "target": 34962
    }
  ],
  "buffers": [
    {
      "byteLength": 10085280,
      "uri": "scene.bin"
    }
  ],
  "images": [
    {
      "uri": "textures/material_0_baseColor.jpeg"
    },
    {
      "uri": "textures/material_0_metallicRoughness.png"
    },
    {
      "uri": "textures/material_0_normal.jpeg"
    }
  ],
  "materials": [
    {
      "doubleSided": true,
      "name": "material_0",
      "normalTexture": {
        "index": 2,
        "texCoord": 2
      },
      "pbrMetallicRoughness": {
        "baseColorTexture": {
          "index": 0
        },
        "metallicRoughnessTexture": {
          "index": 1,
          "texCoord": 1
        }
      }
    }
  ],
  "meshes": [
    {
      "name": "Object_0",
      "primitives": [
        {
          "attributes": {
            "NORMAL": 1,
            "POSITION": 0,
            "TANGENT": 2,
            "TEXCOORD_0": 3,
            "TEXCOORD_1": 4,
            "TEXCOORD_2": 5,
            "TEXCOORD_3": 6
          },
          "indices": 7,
          "material": 0,
          "mode": 4
        }
      ]
    },
    {
      "name": "Object_1",
      "primitives": [
        {
          "attributes": {
            "NORMAL": 9,
            "POSITION": 8,
            "TANGENT": 10,
            "TEXCOORD_0": 11,
            "TEXCOORD_1": 12,
            "TEXCOORD_2": 13,
            "TEXCOORD_3": 14
          },
          "indices": 15,
          "material": 0,
          "mode": 4
        }
      ]
    }
  ],
  "nodes": [
    {
      "children": [
        1
      ],
      "matrix": [
        1.0,
        0.0,
        0.0,
        0.0,
        0.0,
        2.220446049250313e-16,
        -1.0,
        0.0,
        0.0,
        1.0,
        2.220446049250313e-16,
        0.0,
        0.0,
        0.0,
        0.0,
        1.0
      ],
      "name": "Sketchfab_model"
    },
    {
      "children": [
        2
      ],
      "name": "root"
    },
    {
      "children": [
        3
      ],
      "matrix": [
        1.0,
        0.0,
        0.0,
        0.0,
        0.0,
        2.220446049250313e-16,
        1.0,
        0.0,
        0.0,
        -1.0,
        2.220446049250313e-16,
        0.0,
        0.0,
        0.0,
        0.0,
        1.0
      ],
      "name": "GLTF_SceneRootNode"
    },
    {
      "children": [
        4
      ],
      "name": "_1"
    },
    {
      "children": [
        5,
        6
      ],
      "name": "mesh_0_0"
    },
    {
      "mesh": 0,
      "name": "Object_5"
    },
    {
      "mesh": 1,
      "name": "Object_6"
    }
  ],
  "samplers": [
    {
      "magFilter": 9729,
      "minFilter": 9987,
      "wrapS": 10497,
      "wrapT": 10497
    }
  ],
  "scene": 0,
  "scenes": [
    {
      "name": "Sketchfab_Scene",
      "nodes": [
        0
      ]
    }
  ],
  "textures": [
    {
      "sampler": 0,
      "source": 0
    },
    {
      "sampler": 0,
      "source": 1
    },
    {
      "sampler": 0,
      "source": 2
    }
  ]
}
